<svg class="eligible-img" width="226" height="120" viewBox="0 0 226 120" fill="none" xmlns="http://www.w3.org/2000/svg"> <path class="onhover" d="M20.9792 24.4517L27.5664 29.4704C17.0899 38.6026 10.4557 52.1002 10.4557 67.1605C10.4557 82.2686 17.1299 95.7962 27.6602 104.935L21.2006 110.059C8.94864 99.8623 1.137 84.4374 1.137 67.1605C1.137 49.9946 8.85555 34.6506 20.9792 24.4517Z" stroke="#DFE4E9" stroke-width="2.274"></path> <path class="onhover" d="M215.544 67.1604C215.544 52.1001 208.91 38.6024 198.429 29.4702L205.016 24.4515C217.144 34.6505 224.863 49.9945 224.863 67.1604C224.863 84.437 217.046 99.862 204.794 110.059L198.339 104.935C208.87 95.7965 215.544 82.2687 215.544 67.1604Z" stroke="#DFE4E9" stroke-width="2.274"></path> <path d="M145.861 89.4188C145.861 89.4188 143.476 95.7312 142.956 98.1972C142.435 100.663 142.447 103.076 142.447 103.076L137.985 102.084C137.985 102.084 139.026 88.8054 140.015 87.8701C141.003 86.9348 145.802 87.3267 145.802 87.3267L145.861 89.4188Z" fill="#0E538C"></path> <path d="M150.985 86.0911C150.985 86.0911 151.81 96.4442 152.331 98.1974C152.852 99.9506 157.576 106.783 157.576 106.783L152.53 105.488C152.53 105.488 147.191 100.057 144.916 88.6125C143.312 80.5345 148.856 82.6333 150.985 86.0911Z" fill="#0E538C"></path> <path d="M140.856 71.643C140.856 71.643 135.169 70.9257 132.403 69.6887C129.637 68.4507 121.296 63.3154 121.296 63.3154L122.652 61.6672C122.652 61.6672 130.456 65.7102 131.991 66.5213C133.527 67.3323 141.066 68.541 141.066 68.541L140.856 71.643Z" fill="#FFE3CA"></path> <path d="M150.059 73.6628C150.26 78.6987 150.777 85.908 150.985 86.091C150.985 86.091 148.489 88.1063 146.391 88.4463C144.294 88.7863 139.627 88.8134 139.627 88.8134C139.627 88.8134 141.051 79.1009 141.098 77.5149C141.145 75.9288 140.539 70.0717 140.539 70.0717C150.985 63.9073 150.052 73.4911 150.059 73.6628Z" fill="#FFBE55"></path> <path d="M144.392 67.051L144.406 68.0564C144.416 68.7952 145.035 69.3781 145.77 69.3408L145.978 69.3306C146.689 69.2945 147.24 68.689 147.209 67.9739L147.166 66.9448C147.133 66.1507 146.406 65.5712 145.627 65.7192L145.449 65.7531C144.83 65.8706 144.384 66.4184 144.392 67.051Z" fill="#FCD2B1"></path> <path d="M142.24 61.047C142.24 61.047 141.026 64.5026 142.096 66.4534C143.166 68.4043 147.112 67.6813 147.786 64.9691C149.269 58.9979 143.943 59.2679 142.24 61.047Z" fill="#FFE3CA"></path> <path d="M144.903 72.3637C144.903 72.3637 141.158 73.2335 136.967 71.4589L137.787 67.7955L144.406 68.0576C144.406 68.0565 144.631 70.0232 144.903 72.3637Z" fill="#FFBE55"></path> <path d="M149.325 68.9895C149.143 69.1759 151.615 77.2584 148.42 80.0678C146.658 81.6165 138.37 83.8204 138.37 83.8204C138.297 83.9187 137.787 84.0667 137.273 84.1932C136.477 84.3897 135.636 84.1367 135.077 83.5346C135.036 83.4894 134.997 83.4476 134.964 83.4103C134.859 83.294 134.812 83.1381 134.832 82.9822C134.88 82.6162 135.156 82.3225 135.517 82.2513C135.671 82.2208 135.829 82.1971 135.956 82.1926C136.723 82.1678 137.329 82.4818 138.088 82.4547L138.565 82.4377C138.565 82.4377 145.252 79.6837 146.145 78.9901C148.855 76.8845 147.561 73.2211 147.799 71.7345L149.325 68.9895Z" fill="#FCD2B1"></path> <path d="M139.947 82.7304C139.947 82.7304 138.499 81.8504 137.586 81.8019C137.172 81.7804 136.478 81.5398 136.261 81.3229C136.044 81.1049 135.87 81.9487 136.239 82.0798C136.608 82.2108 137.523 82.4175 137.315 82.8829L139.947 82.7304Z" fill="#FCD2B1"></path> <path d="M147.683 68.2405C147.683 68.2405 150.985 68.0078 151.322 75.4611L147.117 76.6246C147.117 76.6246 143.946 72.2315 147.683 68.2405Z" fill="#FFBE55"></path> <path d="M121.433 63.6182C121.433 63.6182 122.172 63.7029 123.325 63.5888C124.478 63.4736 123.862 63.033 123.862 63.033L123.175 62.109C123.175 62.109 122.571 60.619 121.811 60.1502C121.633 60.0406 121.566 59.948 121.435 59.7932C121.317 59.6532 119.919 59.5029 121.159 60.4665C121.484 60.7195 121.439 60.9296 121.246 60.9319C121.054 60.9342 119.731 59.8011 119.26 60.0768C117.955 60.8427 118.765 62.5021 119.44 62.8353C120.096 63.1573 121.433 63.6182 121.433 63.6182Z" fill="#FFE3CA"></path> <path d="M148.509 60.1174C148.473 60.1999 148.359 60.2089 148.315 60.131C147.962 59.4984 146.752 57.6831 144.729 58.1473C142.609 58.6342 141.556 60.1581 140.997 59.8644C140.91 59.8181 140.81 59.8938 140.838 59.9875C140.938 60.323 141.195 60.7376 141.855 60.6416C141.916 60.6325 141.972 60.68 141.976 60.7421C141.99 61.0042 141.942 61.5984 141.206 61.5554C141.117 61.5498 141.058 61.6458 141.105 61.7215C141.24 61.9372 141.526 62.2321 142.006 62.0186C142.034 62.0062 142.056 61.9813 142.066 61.9519C142.135 61.7441 142.491 60.8856 143.543 60.9646C143.582 60.968 143.617 60.9951 143.634 61.0313C143.701 61.1827 143.98 61.5825 145.077 61.7881C146.361 62.0287 146.729 62.9844 146.16 63.6419C146.104 63.7051 146.137 63.8057 146.219 63.8203C146.489 63.8655 146.984 63.8554 147.262 63.2815C147.657 62.4648 148.261 63.2578 147.983 63.7254C147.729 64.1513 147.803 65.4911 147.165 66.1824C147.1 66.2524 147.157 66.3676 147.253 66.362C147.589 66.3394 148.134 66.2343 148.426 65.8028C148.869 65.1488 150.1 64.2394 149.704 62.4422C149.34 60.7828 149.007 60.1378 149.611 59.7187C149.684 59.6678 149.675 59.556 149.592 59.5255C149.322 59.4283 148.831 59.3798 148.509 60.1174Z" fill="#0B4870"></path> <path d="M102.691 48.2722C102.691 48.2722 107.022 54.3123 109.255 56.366C111.192 58.1485 116.263 60.5581 117.947 61.4538C118.204 61.5905 118.35 61.6674 118.35 61.6674L119.056 60.2723C119.056 60.2723 112.253 55.4871 110.9 54.3948C109.548 53.3036 105.643 47.3572 105.643 47.3572L102.691 48.2722Z" fill="#B97A59"></path> <path d="M99.4281 46.3551C99.2064 46.2185 89.6484 47.7604 87.4929 46.8431C85.3374 45.9259 80.5663 38.8894 80.5663 38.8894L79.0903 37.9902C78.5031 37.6321 78.0283 37.1148 77.7223 36.4969L77.4096 35.8665C77.0777 35.1967 77.5648 34.4104 78.3107 34.4138L79.6798 34.8341C80.7474 35.1616 81.5721 36.0179 81.8612 37.1012L81.9849 37.5644C81.9849 37.5644 87.6606 43.6124 88.6236 44.2043C89.5854 44.7963 94.2879 43.3989 95.7831 43.2972L99.4281 46.3551Z" fill="#B97A59"></path> <path d="M85.856 67.6511C85.856 67.6511 95.8168 66.7654 100.326 58.2266L94.4274 58.64C94.4274 58.64 83.012 65.0021 82.1435 66.221C81.275 67.4398 83.7061 82.7181 83.7061 82.7181H86.0934L85.856 67.6511Z" fill="#0E538C"></path> <path d="M94.4275 58.6399C94.4275 58.6399 95.7302 73.9136 98.6811 79.7538C101.633 85.594 105.366 93.7884 105.366 93.7884L108.267 93.0033L101.806 75.9176C101.806 75.9176 101.035 67.7233 101.199 66.6772C101.363 65.6312 102.91 61.4504 101.347 58.2253L94.4275 58.6399Z" fill="#0E538C"></path> <path d="M91.281 44.0509L91.6174 47.6917C91.6174 47.6917 94.3748 48.0757 94.341 48.244C93.3218 53.1794 91.6399 60.2068 91.4048 60.3525C91.4048 60.3525 94.0643 60.5943 96.078 61.2743C98.0918 61.9544 101.938 63.9086 101.938 63.9086C101.938 63.9086 102.342 55.0873 102.555 53.516C102.766 51.9436 104.318 46.2649 104.318 46.2649C99.0075 41.0291 91.281 44.0509 91.281 44.0509Z" fill="#FFBE55"></path> <path d="M101.007 42.65L100.83 43.6396C100.699 44.3671 99.9941 44.8404 99.2752 44.6822L99.0716 44.637C98.3752 44.4845 97.9319 43.7966 98.0782 43.0962L98.5957 40.6122L100.176 41.1939C100.768 41.4142 101.118 42.0276 101.007 42.65Z" fill="#A86D52"></path> <path d="M104.476 37.7383C104.476 37.7383 104.096 41.8117 102.441 43.2949C100.786 44.7781 97.4505 42.2749 97.7104 39.4926C98.2864 33.3644 103.457 35.4915 104.476 37.7383Z" fill="#B97A59"></path> <path d="M101.536 44.2292C101.536 44.2292 105.061 45.7701 107.373 49.7023L104.54 52.1536L101.346 49.081C101.347 49.081 100.366 46.2705 101.536 44.2292Z" fill="#FFBE55"></path> <path d="M42.6323 115.001C42.6323 115.001 59.2567 84.5209 78.8328 84.5469C101.506 84.5763 85.2138 96.9683 108.002 97.6224C130.79 98.2764 175.836 111.848 175.836 111.848H98.5L42.6323 115V115.001Z" fill="#CCE9FF"></path> <path d="M84.162 82.7169L83.9943 82.8152C83.0493 83.3687 82.0222 83.7607 80.9602 84.0216C78.7642 84.5593 78.5527 85.6381 78.5527 85.6381C78.4706 85.7872 79.1546 86.2074 79.3233 86.1938L82.911 85.4099C83.5252 85.2755 84.1552 85.2359 84.7807 85.2924L85.791 85.3828C86.2601 85.3738 86.6021 84.9343 86.4963 84.4746L86.0936 82.7169H84.162Z" fill="#0B4870"></path> <path d="M105.366 93.7873C105.366 93.7873 104.541 96.8056 102.262 96.6102C102.262 96.6102 101.005 98.6266 104.411 98.1137C105.713 97.9172 105.988 96.2182 108.708 96.643C109.46 96.7604 109.881 95.859 109.881 95.859C110.164 94.8819 109.411 94.3159 108.743 93.55L108.267 93.0033L105.366 93.7873Z" fill="#0B4870"></path> <path d="M74.7365 85.132L73.5935 85.0472L80.735 17.2051L81.8769 17.2898L74.7365 85.132Z" fill="#0B4870"></path> <path d="M80.7218 17.8806C80.7218 17.8806 71.6768 10.9639 68.0374 15.5739C63.2336 21.6581 59.9869 19.3571 58.3118 17.5045C58.3118 17.5045 59.7833 21.1961 53.5935 27.0566C53.5935 27.0566 61.779 33.0651 66.3465 29.3599C70.9129 25.6547 78.609 29.8027 79.545 32.672L80.7218 17.8806Z" fill="#FFBE55"></path> <path d="M118.444 62.0051C118.444 62.0051 117.854 61.5499 117.105 60.6609C116.357 59.773 117.105 59.886 117.105 59.886L118.239 59.7019C118.239 59.7019 119.705 59.0535 120.576 59.2478C120.779 59.2929 120.892 59.2737 121.093 59.2534C121.274 59.2353 122.384 60.104 120.826 59.93C120.417 59.8849 120.304 60.0667 120.44 60.2034C120.576 60.3401 122.312 60.4508 122.459 60.9783C122.865 62.44 121.133 63.0658 120.417 62.8331C119.723 62.6084 118.444 62.0051 118.444 62.0051Z" fill="#B97A59"></path> <path d="M99.2111 36.5737C99.2111 36.5737 99.8535 38.5551 102.133 38.2942C104.412 38.0321 104.133 39.7401 104.133 39.7401C104.133 39.7401 106.051 38.014 104.519 36.5749C102.985 35.1346 102.404 33.2617 99.2111 34.8522C96.0183 36.4427 96.78 39.4294 97.6462 40.6269L97.9185 40.9014C98.0883 41.0719 98.3718 41.0392 98.4967 40.8336L98.4978 40.8313C98.5721 40.7093 98.5698 40.5568 98.4933 40.4359C98.2706 40.0824 97.8735 39.3176 98.2503 38.8703C98.481 38.5969 98.6598 38.6545 98.7869 38.7969C98.9951 39.0318 99.3191 39.1233 99.6082 39.0013L99.6307 38.9923C99.6307 38.9912 100.711 37.883 99.2111 36.5737Z" fill="#0B4870"></path> </svg>