<svg class="eligible-img" width="226" height="120" viewBox="0 0 226 120" fill="none" xmlns="http://www.w3.org/2000/svg"> <path class="onhover" d="M20.9792 22.4517L27.5664 27.4704C17.0899 36.6026 10.4557 50.1002 10.4557 65.1605C10.4557 80.2686 17.1299 93.7962 27.6602 102.935L21.2006 108.059C8.94864 97.8623 1.137 82.4374 1.137 65.1605C1.137 47.9946 8.85555 32.6506 20.9792 22.4517Z" stroke="#DFE4E9" stroke-width="2.274"></path> <path class="onhover" d="M215.544 65.1604C215.544 50.1001 208.91 36.6024 198.429 27.4702L205.016 22.4515C217.144 32.6505 224.863 47.9945 224.863 65.1604C224.863 82.437 217.046 97.862 204.794 108.059L198.339 102.935C208.87 93.7965 215.544 80.2687 215.544 65.1604Z" stroke="#DFE4E9" stroke-width="2.274"></path> <path fill-rule="evenodd" clip-rule="evenodd" d="M172.253 55.2713C175.27 17.3763 139.951 18.4596 132.559 23.5946C125.168 28.7513 123.358 33.1713 113.812 32.803C104.265 32.4346 100.042 28.5346 87.6726 32.9546C75.3034 37.353 76.8765 48.9446 75.9714 55.553C75.0448 62.1613 77.4583 65.5846 61.6843 73.5797C45.9103 81.5747 50.7804 96.8713 50.4357 98.4746C50.0909 100.078 176.283 94.7913 176.283 94.7913C176.283 94.7913 169.215 93.1447 172.253 55.2713Z" fill="#CCE9FF"></path> <path d="M153.118 98.0632C155.641 98.0632 157.686 96.5111 157.686 94.5965C157.686 92.682 155.641 91.1299 153.118 91.1299C150.595 91.1299 148.549 92.682 148.549 94.5965C148.549 96.5111 150.595 98.0632 153.118 98.0632Z" fill="#F2F2F2"></path> <path fill-rule="evenodd" clip-rule="evenodd" d="M153.118 91.1299C152.083 91.1299 151.135 91.3899 150.359 91.8232C150.209 91.9098 152.385 92.5815 155.919 91.8665C155.143 91.4115 154.174 91.1299 153.118 91.1299Z" fill="#D3D3D3"></path> <path d="M153.29 91.1299H153.031V91.6498H153.29V91.1299Z" fill="#F2F2F2"></path> <path fill-rule="evenodd" clip-rule="evenodd" d="M163.009 41.1233H99.18C98.8999 41.1233 98.6628 41.3616 98.6628 41.6433V84.695C98.6628 84.9766 98.8999 85.215 99.18 85.215H133.81V94.8567H139.003V85.215H163.009C163.289 85.215 163.526 84.9766 163.526 84.695V41.6433C163.526 41.3616 163.31 41.1233 163.009 41.1233Z" fill="#D3D3D3"></path> <path fill-rule="evenodd" clip-rule="evenodd" d="M160.811 41.1233H96.982C96.7019 41.1233 96.4648 41.3616 96.4648 41.6433V84.695C96.4648 84.9766 96.7019 85.215 96.982 85.215H123.552V94.8567H136.87V85.215H160.811C161.091 85.215 161.328 84.9766 161.328 84.695V41.6433C161.328 41.3616 161.112 41.1233 160.811 41.1233Z" fill="#F2F2F2"></path> <path fill-rule="evenodd" clip-rule="evenodd" d="M157.751 43.9185H100.064C99.7834 43.9185 99.5464 44.1568 99.5464 44.4385V78.0868C99.5464 78.3684 99.7834 78.6068 100.064 78.6068H157.751C158.031 78.6068 158.268 78.3684 158.268 78.0868V44.4385C158.268 44.1568 158.031 43.9185 157.751 43.9185Z" fill="#D3D3D3"></path> <path d="M153.139 46.28H104.891V76.245H153.139V46.28Z" fill="#0B4870"></path> <path d="M146.61 91.9316H113.446V93.8383H146.61V91.9316Z" fill="#0B4870"></path> <path fill-rule="evenodd" clip-rule="evenodd" d="M104.891 46.28V49.53H153.139V46.28H104.891ZM110.299 54.535H111.916V52.91H110.299V54.535ZM110.299 57.46H111.916V55.835H110.299V57.46ZM110.299 60.4067H111.916V58.8034H110.299V60.4067ZM110.299 63.3534H111.916V61.7284H110.299V63.3534ZM110.299 66.3H111.916V64.675H110.299V66.3ZM110.299 69.2467H111.916V67.6217H110.299V69.2467ZM110.299 72.1934H111.916V70.5684H110.299V72.1934Z" fill="#F2F2F2"></path> <path fill-rule="evenodd" clip-rule="evenodd" d="M113.963 57.4602H119.372V55.8352H113.963V57.4602ZM140.684 52.9102H134.025V54.5352H140.684V52.9102ZM147.429 52.9102H142.149V54.5352H147.429V52.9102ZM147.429 55.8568H140.986V57.4818H147.429V55.8568ZM136.374 61.7502V63.3752H147.493V61.7502H136.374ZM135.059 61.7502H123.94V63.3752H135.059V61.7502ZM143.184 64.6752H126.052V66.3002H143.184V64.6752ZM139.003 69.2468H147.429V67.6218H139.003V69.2468Z" fill="#30C34F"></path> <path fill-rule="evenodd" clip-rule="evenodd" d="M107.11 47.1685C106.679 47.1685 106.334 47.5151 106.334 47.9485C106.334 48.3818 106.679 48.7285 107.11 48.7285C107.541 48.7285 107.886 48.3818 107.886 47.9485C107.886 47.5151 107.541 47.1685 107.11 47.1685ZM113.963 54.5351H124.716V52.9101H113.963V54.5351ZM147.428 58.8035H125.233V60.4285H147.428V58.8035ZM113.963 63.3535H122.539V61.7285H113.963V63.3535ZM113.963 69.2468H122.539V67.6218H113.963V69.2468ZM113.963 72.1935H121.354V70.5685H113.963V72.1935ZM139.52 55.8568H132.861V57.4818H139.52V55.8568ZM144.433 64.6751V66.3001H147.493V64.6751H144.433Z" fill="#D54949"></path> <path fill-rule="evenodd" clip-rule="evenodd" d="M109.394 47.1685C108.963 47.1685 108.619 47.5151 108.619 47.9485C108.619 48.3818 108.963 48.7285 109.394 48.7285C109.825 48.7285 110.17 48.3818 110.17 47.9485C110.149 47.5151 109.804 47.1685 109.394 47.1685ZM123.854 58.8035H113.963V60.4285H123.854V58.8035ZM124.737 64.6751H113.984V66.3001H124.737V64.6751ZM132.711 52.9101H126.052V54.5351H132.711V52.9101ZM131.461 55.8568H120.708V57.4818H131.461V55.8568ZM122.755 70.5685V72.1935H147.493V70.5685H122.755ZM123.854 69.2468H137.839V67.6218H123.854V69.2468Z" fill="#FFBE55"></path> <path d="M111.592 48.7065C112.021 48.7065 112.368 48.3573 112.368 47.9265C112.368 47.4957 112.021 47.1465 111.592 47.1465C111.164 47.1465 110.817 47.4957 110.817 47.9265C110.817 48.3573 111.164 48.7065 111.592 48.7065Z" fill="#30C34F"></path> <path d="M176.865 93.8381H49.7463V98.7781H176.865V93.8381Z" fill="#FFBE55"></path> <path fill-rule="evenodd" clip-rule="evenodd" d="M87.2631 37.2014C87.2631 37.2014 79.5485 32.9331 74.7215 38.2631C69.8945 43.5931 67.287 42.4231 68.4938 52.8231L67.8904 58.1097L76.9195 59.0847L77.0919 55.6397C77.0919 55.6397 84.6772 57.9797 86.121 49.5514C87.5648 41.1231 87.2631 37.2014 87.2631 37.2014Z" fill="#F8B8A9"></path> <path fill-rule="evenodd" clip-rule="evenodd" d="M115.579 88.3999V91.9966H126.052C123.81 88.5732 115.579 88.3999 115.579 88.3999Z" fill="#F8B8A9"></path> <path fill-rule="evenodd" clip-rule="evenodd" d="M70.6056 57.8499C65.0459 57.6115 59.2492 60.9049 58.3872 77.3282C59.1845 98.4316 62.3523 98.5399 62.3523 98.5399L88.3405 98.6916C88.3405 98.6916 92.9736 57.1349 70.6056 57.8499Z" fill="#2A94F4"></path> <path fill-rule="evenodd" clip-rule="evenodd" d="M115.148 87.0132C110.407 86.5148 108.769 86.6448 99.5247 85.5182C88.8579 77.1765 83.1043 57.0915 77.0058 61.7282C76.0146 62.0965 72.1573 64.9565 82.975 79.7765C93.8142 94.5965 94.59 94.2282 103.447 94.1632C112.303 94.0982 114.566 93.9032 114.566 93.9032C114.566 93.9032 116.936 90.0465 115.148 87.0132Z" fill="#1D81DB"></path> <path fill-rule="evenodd" clip-rule="evenodd" d="M75.1741 77.4147C66.2743 76.548 54.293 77.068 54.293 77.068C54.293 77.068 49.0134 77.6747 49.8108 83.5897V98.6914H83.9231C83.9446 98.7131 84.0739 78.303 75.1741 77.4147Z" fill="#FFE3CA"></path> <path fill-rule="evenodd" clip-rule="evenodd" d="M73.4287 78.9315C65.1538 78.1081 53.9914 78.6065 53.9914 78.6065C53.9914 78.6065 49.0782 79.1698 49.8324 84.6732V98.7132H81.5958C81.5958 98.6915 81.7251 79.7331 73.4287 78.9315Z" fill="#FCD2B1"></path> <path fill-rule="evenodd" clip-rule="evenodd" d="M83.9661 32.0231C81.4664 28.6648 77.3721 28.3615 70.0238 31.0265C62.6756 33.6915 61.6627 46.2365 64.7443 51.1981C67.8258 56.1598 74.8293 53.6248 74.5491 50.8948C74.2906 48.1648 72.6744 43.5498 75.2818 44.1131C77.8893 44.6765 78.7081 41.4698 78.5788 39.4765C78.4495 37.4831 87.0261 38.5015 88.2544 36.4648C89.4827 34.4498 86.4658 35.3815 83.9661 32.0231Z" fill="#0B4870"></path> <path fill-rule="evenodd" clip-rule="evenodd" d="M168.18 86.6881C168.396 86.6447 168.59 86.6014 168.784 86.493C169.064 86.3414 169.258 86.0814 169.452 85.8214C169.689 85.4964 169.947 85.128 169.883 84.738C169.818 84.413 169.365 84.1747 169.128 84.348C169.409 84.023 169.71 83.698 169.775 83.2647C169.861 82.8097 169.602 82.2247 169.128 82.1814C168.827 82.138 168.568 82.333 168.353 82.5714C168.525 82.203 168.59 81.7914 168.503 81.4014C168.46 81.2714 168.417 81.1414 168.309 81.0764C168.116 80.968 167.879 81.0547 167.685 81.163C167.06 81.5314 166.521 82.073 166.155 82.723C166.284 82.398 166.37 82.073 166.37 81.7264C166.349 81.1847 165.939 80.643 165.4 80.643C165.185 80.6647 164.969 80.7514 164.775 80.8814C164.194 81.2714 163.763 81.8997 163.612 82.593C163.72 81.9214 163.655 81.2064 163.418 80.578C163.332 80.3397 163.159 80.058 162.901 80.058C162.728 80.058 162.577 80.188 162.47 80.318C162.039 80.7947 161.759 81.4014 161.651 82.0297C161.629 81.5314 161.608 80.9897 161.328 80.5564C161.047 80.123 160.422 79.8847 160.013 80.188C159.819 80.3397 159.711 80.5997 159.625 80.8597C159.388 81.6614 159.323 82.528 159.474 83.3514C159.323 82.853 159.086 82.3764 158.785 81.943C158.591 81.683 158.246 81.423 157.987 81.5964C157.815 81.7264 157.794 81.9647 157.815 82.1814C157.858 82.9614 158.117 83.7414 158.526 84.413C158.289 84.023 158.031 83.633 157.75 83.2647C157.664 83.1347 157.535 83.0047 157.384 82.9614C157.147 82.918 156.91 83.0914 156.845 83.3297C156.781 83.568 156.824 83.8064 156.91 84.0447C157.621 86.168 159.474 86.493 161.349 86.818C161.759 86.883 162.168 86.9481 162.577 86.9914H157.406L159.043 92.7331C159.13 93.3614 159.668 93.8381 160.272 93.8381H166.844C167.448 93.8381 167.986 93.3614 168.094 92.7331L169.732 86.9914H166.349C166.952 86.9264 167.577 86.8397 168.18 86.6881Z" fill="#004970"></path> <path fill-rule="evenodd" clip-rule="evenodd" d="M169.883 84.738C169.818 84.413 169.365 84.1747 169.128 84.348C169.409 84.023 169.71 83.698 169.775 83.2647C169.861 82.8097 169.602 82.2247 169.128 82.1814C168.827 82.138 168.568 82.333 168.353 82.5714C168.525 82.203 168.59 81.7914 168.503 81.4014C168.46 81.2714 168.417 81.1414 168.309 81.0764C168.116 80.968 167.879 81.0547 167.685 81.163C167.06 81.5314 166.521 82.073 166.155 82.723C166.284 82.398 166.37 82.073 166.37 81.7264C166.349 81.1847 165.939 80.643 165.4 80.643C165.185 80.6647 164.969 80.7514 164.775 80.8814C164.194 81.2714 163.763 81.8997 163.612 82.593C163.72 81.9214 163.655 81.2064 163.418 80.578C163.332 80.3397 163.159 80.058 162.901 80.058C162.728 80.058 162.577 80.188 162.47 80.318C162.039 80.7947 161.759 81.4014 161.651 82.0297C161.629 81.5314 161.608 80.9897 161.328 80.5564C161.047 80.123 160.422 79.8847 160.013 80.188C159.819 80.3397 159.711 80.5997 159.625 80.8597C159.388 81.6614 159.323 82.528 159.474 83.3514C159.323 82.853 159.086 82.3764 158.785 81.943C158.591 81.683 158.246 81.423 157.987 81.5964C157.815 81.7264 157.794 81.9647 157.815 82.1814C157.858 82.9614 158.117 83.7414 158.526 84.413C158.289 84.023 158.031 83.633 157.75 83.2647C157.664 83.1347 157.535 83.0047 157.384 82.9614C157.147 82.918 156.91 83.0914 156.845 83.3297C156.781 83.568 156.824 83.8064 156.91 84.0447C157.621 86.1681 159.474 86.4931 161.349 86.8181C163.59 87.2297 165.939 87.1864 168.18 86.6881C168.396 86.6447 168.59 86.6014 168.784 86.4931C169.064 86.3414 169.258 86.0814 169.452 85.8214C169.689 85.4964 169.947 85.1281 169.883 84.738Z" fill="#FED17A"></path> <path fill-rule="evenodd" clip-rule="evenodd" d="M169.279 84.4996C169.236 84.0662 168.913 83.6329 168.482 83.5246C168.029 83.4162 167.534 83.7629 167.534 84.2179C167.62 83.6112 167.598 82.8096 167.038 82.5929C166.887 82.5279 166.715 82.5279 166.542 82.5496C165.723 82.6362 164.948 83.0046 164.366 83.5896C164.668 83.1779 164.624 82.5712 164.301 82.2029C163.978 81.8346 163.375 81.7262 162.944 81.9646C162.405 82.2679 162.211 82.9179 162.06 83.5246C161.974 82.4846 160.659 81.7479 159.733 82.2246C159.56 82.3112 159.388 82.4412 159.302 82.6146C158.979 83.2212 159.603 83.9362 159.517 84.6296C159.194 84.2829 158.849 83.9362 158.418 83.7846C157.987 83.6329 157.405 83.7412 157.19 84.1529C157.082 84.3696 157.082 84.6296 157.125 84.8679C157.492 86.8396 159.905 86.5579 161.371 86.5796C163.461 86.6446 165.53 86.5796 167.598 86.5363C167.792 86.5363 167.986 86.5363 168.159 86.4713C168.503 86.3629 168.74 86.0813 168.934 85.7779C169.171 85.4096 169.322 84.9546 169.279 84.4996Z" fill="#FFBE55"></path> <path fill-rule="evenodd" clip-rule="evenodd" d="M170.12 85.843H156.931C156.522 85.843 156.177 86.1897 156.177 86.6013V87.3163C156.177 87.728 156.522 88.0747 156.931 88.0747H170.12C170.529 88.0747 170.874 87.728 170.874 87.3163V86.6013C170.874 86.1897 170.529 85.843 170.12 85.843Z" fill="#01384F"></path> </svg>