<svg class="eligible-img" width="226" height="132" viewBox="0 0 226 132" fill="none" xmlns="http://www.w3.org/2000/svg"> <path class="onhover" d="M20.9792 22.4517L27.5664 27.4704C17.0899 36.6026 10.4557 50.1002 10.4557 65.1605C10.4557 80.2686 17.1299 93.7962 27.6602 102.935L21.2006 108.059C8.94864 97.8623 1.137 82.4374 1.137 65.1605C1.137 47.9946 8.85555 32.6506 20.9792 22.4517Z" stroke="#DFE4E9" stroke-width="2.274"></path> <path class="onhover" d="M215.544 65.1604C215.544 50.1001 208.91 36.6024 198.429 27.4702L205.016 22.4515C217.144 32.6505 224.863 47.9945 224.863 65.1604C224.863 82.437 217.046 97.862 204.794 108.059L198.339 102.935C208.87 93.7965 215.544 80.2687 215.544 65.1604Z" stroke="#DFE4E9" stroke-width="2.274"></path> <path opacity="0.1" d="M117.245 119.585C144.799 119.585 167.137 117.757 167.137 115.502C167.137 113.247 144.799 111.419 117.245 111.419C89.6904 111.419 67.353 113.247 67.353 115.502C67.353 117.757 89.6904 119.585 117.245 119.585Z" fill="#FFBE55"></path> <path opacity="0.1" d="M169.614 84.9326C169.614 95.2813 161.904 113.241 161.904 113.241L68.8836 114.252C63.6107 105.757 60.5615 95.7052 60.5615 84.9326C60.5615 54.4514 84.9739 29.7424 115.087 29.7424C145.201 29.7424 169.614 54.4514 169.614 84.9326Z" fill="#FFBE55"></path> <path d="M164.94 101.531H69.551V44.5534C69.551 42.9597 70.828 41.6672 72.4024 41.6672H162.089C163.663 41.6672 164.94 42.9597 164.94 44.5534V101.531Z" fill="#FFBE55"></path> <path d="M158.44 101.531H76.0292L73.0652 81.2205H161.467L158.44 101.531Z" fill="#FFBE55"></path> <path opacity="0.1" d="M158.44 101.531H76.0292L73.0652 81.2205H161.467L158.44 101.531Z" fill="black"></path> <path d="M162.41 51.09C162.41 51.09 160.804 49.2997 160.469 49.4407C160.135 49.5817 159.271 51.5269 159.271 51.5269L161.246 53.0362" fill="#FAB9AF"></path> <path d="M146.438 47.7634C146.438 47.7634 144.815 39.5436 148.269 38.7542C151.723 37.9647 153.903 37.3572 156.034 39.4809C156.034 39.4809 160.461 38.1345 161.357 43.0399C162.253 47.9453 161.974 51.7801 158.798 53.077C155.623 54.3738 153.898 54.7777 153.898 54.7777L146.438 47.7634Z" fill="#0B4870"></path> <path d="M148.823 53.1587C148.823 53.1587 148.823 54.8516 146.447 55.4748C146.447 55.4748 145.655 57.2216 148.823 57.9519C151.991 58.6821 153.839 58.6516 154.103 56.7072C154.367 54.762 155.159 52.7131 155.159 52.7131C155.159 52.7131 150.143 50.2195 148.823 53.1587Z" fill="#FCD2B1"></path> <path d="M158.45 101.531H166.145L176.326 73.1381C176.805 71.803 176.864 70.2885 176.492 68.9012C174.817 62.6528 170.174 58.4471 164.95 58.4471L158.45 101.531Z" fill="#FFBE55"></path> <path d="M76.0826 101.531H68.3874L58.2071 73.1381C57.7282 71.803 57.6688 70.2885 58.0412 68.9012C59.7154 62.6528 64.3588 58.4471 69.5827 58.4471L76.0826 101.531Z" fill="#FFBE55"></path> <path d="M59.2957 59.6805C59.2957 59.6805 56.594 58.5012 55.4494 57.3166C54.9034 56.7508 54.6257 55.3565 54.4838 54.0536C54.2929 52.2954 53.2223 50.7601 51.6513 49.9863C51.2015 49.7653 50.6779 50.0716 50.64 50.5756C50.554 51.721 50.6727 53.7959 51.9651 56.5576C52.8457 58.4394 50.7673 61.3194 53.3814 61.5727C55.9955 61.826 59.2012 63.3396 59.2012 63.3396L59.2957 59.6805Z" fill="#FFE3CA"></path> <path d="M56.3988 60.9555C56.3988 60.9555 53.697 59.7762 52.5525 58.5916C52.0064 58.0259 51.7287 56.6315 51.5868 55.3286C51.3959 53.5704 50.3253 52.0351 48.7543 51.2614C48.3046 51.0403 47.7809 51.3467 47.7431 51.8506C47.6571 52.996 47.7757 55.071 49.0682 57.8327C49.9487 59.7144 47.8703 62.5945 50.4844 62.8477C53.0985 63.101 56.3042 64.6146 56.3042 64.6146L56.3988 60.9555Z" fill="#FFE3CA"></path> <path d="M55.4494 57.3165L54.2688 59.603L112.474 72.7874L112.122 64.8296C112.122 64.8296 82.9024 59.9598 79.8515 59.9598C76.8006 59.9598 55.4494 57.3165 55.4494 57.3165Z" fill="#0B4870"></path> <path d="M113.412 67.3232C113.412 67.3232 84.6618 62.8095 77.1515 62.2159C69.6412 61.6223 53.5689 59.4159 53.5689 59.4159L52.7073 63.3404C52.7073 63.3404 67.8801 68.9865 74.4523 70.0562C81.0245 71.1259 97.4562 84.9099 122.683 81.2213L113.412 67.3232Z" fill="#0E538C"></path> <path d="M177.837 64.7104C181.123 59.2462 162.411 51.09 162.411 51.09L161.005 53.4417C161.005 53.4417 168.49 62.3752 170.328 63.6416C172.164 64.908 176.363 67.1622 177.837 64.7104Z" fill="#2A94F4"></path> <path d="M158.944 68.1553C158.944 68.1553 174.338 66.9237 176.732 65.639L173.377 61.3847C173.377 61.3847 165.515 61.2663 162.933 59.603C160.351 57.9398 155.774 56.2773 155.774 56.2773L158.944 68.1553Z" fill="#2A94F4"></path> <path d="M127.284 52.9386C125.86 46.7067 146.094 44.9181 146.094 44.9181L146.496 47.8173C146.496 47.8173 136.883 53.694 134.746 54.312C132.609 54.93 127.923 55.7351 127.284 52.9386Z" fill="#2A94F4"></path> <path d="M144.152 62.2159C144.152 62.2159 129.92 56.152 128.044 54.171L132.549 51.1987C132.549 51.1987 140.154 51.7349 143.018 52.8281C146.762 54.2572 147.218 57.5115 147.218 57.5115L144.152 62.2159Z" fill="#2A94F4"></path> <path d="M144.647 53.6862C144.647 53.6862 130.779 63.4038 112.121 64.8286C112.121 64.8286 110.411 81.1315 112.121 82.1699C112.708 82.5259 141.612 86.2798 157.77 70.8855C159.765 68.9847 162.816 62.8085 162.816 62.8085L155.775 56.2755L154.191 56.1519L152.342 57.2329C150.965 58.0598 148.079 57.0876 147.483 55.5836L147.507 55.0518L144.647 53.6862Z" fill="#2A94F4"></path> <path d="M158.239 51.7261C158.239 51.7261 154.807 55.2668 152.254 55.0588C149.702 54.8516 148.782 55.0292 147.218 52.9803C145.654 50.9315 146.782 43.6395 147.712 42.4749C148.939 40.9387 150.847 40.2407 153.047 43.5368C155.248 46.8329 157.536 44.3384 158.24 46.12C158.944 47.9017 157.324 48.5049 157.852 49.1281C157.852 49.1281 158.776 47.7929 159.532 48.128C160.288 48.4657 160.024 51.7261 158.239 51.7261Z" fill="#FFE3CA"></path> <path d="M161.719 114.597H160.133L156.539 101.531H159.992L161.719 114.597Z" fill="#FFBE55"></path> <path d="M72.0522 114.597H73.6379L77.2322 101.531H73.7789L72.0522 114.597Z" fill="#FFBE55"></path> </svg>